<?xml version="1.0" encoding="UTF-8"?><svg id="Layer_2" xmlns="http://www.w3.org/2000/svg" viewBox="0 0 1495 627"><defs><style>.cls-1{fill:none;}.cls-2{fill:#eb5d0b;}</style></defs><g id="Layer_1-2"><g><rect class="cls-1" width="1495" height="627"/><g><path class="cls-2" d="m606.63,400.25l-35.86-53.17c-2.76-4.09-1.63-9.6,2.47-12.35,16.42-11.04,26.72-30.68,26.72-53.38,0-38.91-32.52-69.68-72.59-69.68h-86.15c-3.25,0-5.89,2.64-5.89,5.89v37.71c0,1.55,1.2,2.85,2.75,2.93,29.15,1.57,52.56,26.7,52.56,55.37s-23.66,53.53-52.55,55.08c-1.55.08-2.76,1.38-2.76,2.93v36.55c0,3.25,2.64,5.89,5.89,5.89h50.05c3.25,0,5.89-2.64,5.89-5.89v-17.61c0-12.55,10.83-15.59,19.13-5.75l21.03,26.29c1.89,1.89,4.46,2.96,7.14,2.96h54.83c7.08,0,11.29-7.91,7.33-13.78Z"/><path class="cls-2" d="m634.08,211.6h43.38c3.25,0,5.89,2.64,5.89,5.89v190.58c0,3.25-2.64,5.89-5.89,5.89h-43.38c-3.25,0-5.89-2.64-5.89-5.89v-190.58c0-3.25,2.64-5.89,5.89-5.89Z"/><path class="cls-2" d="m753.81,261.53h-45.75c-3.25,0-5.89-2.64-5.89-5.89v-38.15c0-3.25,2.64-5.89,5.89-5.89h151.39c3.25,0,5.89,2.64,5.89,5.89v38.15c0,3.25-2.64,5.89-5.89,5.89h-44.58c-1.63,0-2.95,1.32-2.95,2.95v143.59c0,3.25-2.64,5.89-5.89,5.89h-43.38c-3.25,0-5.89-2.64-5.89-5.89v-143.59c0-1.63-1.32-2.95-2.95-2.95Z"/><path class="cls-2" d="m890.89,211.6h137.45c3.25,0,5.89,2.64,5.89,5.89v37.86c0,3.25-2.64,5.89-5.89,5.89h-85.23c-1.63,0-2.95,1.32-2.95,2.95v21.98c0,1.63,1.32,2.95,2.95,2.95h79.13c3.25,0,5.89,2.64,5.89,5.89v33.51c0,3.25-2.64,5.89-5.89,5.89h-79.13c-1.63,0-2.95,1.32-2.95,2.95v24.88c0,1.63,1.32,2.95,2.95,2.95h87.56c3.25,0,5.89,2.64,5.89,5.89v36.99c0,3.25-2.64,5.89-5.89,5.89h-139.77c-3.25,0-5.89-2.64-5.89-5.89v-190.58c0-3.25,2.64-5.89,5.89-5.89Z"/><path class="cls-2" d="m1162.48,208.69c-61.84,0-111.49,47.03-111.49,104.81s49.65,104.52,111.49,104.52,111.78-46.75,111.78-104.52-49.65-104.81-111.78-104.81Zm.05,159.98c-30.2,0-55.16-24.1-55.16-55.16s24.68-55.45,55.16-55.45,55.45,25.84,55.45,55.45-25.26,55.16-55.45,55.16Z"/><path class="cls-2" d="m331.1,208.69c31.48,0,59.66,13.44,79.8,34.87,2.3,2.45,2.02,6.36-.56,8.52l-28.61,23.95c-2.32,1.94-5.7,1.75-7.89-.34-11.52-11.05-26.55-17.64-42.75-17.64-30.48,0-55.16,23.23-55.16,54.87s24.68,54.58,55.16,54.58c16.2,0,31.23-6.58,42.75-17.64,2.19-2.1,5.57-2.29,7.89-.34l28.61,23.95c2.58,2.16,2.86,6.06.56,8.52-20.14,21.43-48.32,34.87-79.8,34.87-60.97,0-110.33-43.84-110.33-103.94s49.36-104.23,110.33-104.23Z"/></g></g></g></svg>